<svg width="1163" height="852" xmlns="http://www.w3.org/2000/svg" xmlns:xlink="http://www.w3.org/1999/xlink" xml:space="preserve" overflow="hidden"><defs><clipPath id="clip0"><rect x="197" y="1123" width="1163" height="852"/></clipPath></defs><g clip-path="url(#clip0)" transform="translate(-197 -1123)"><path d="M929.513 1430.6 642.385 1551.43 763.209 1264.3Z" fill-rule="evenodd"/><rect x="928" y="1432" width="321" height="235" stroke="#000000" stroke-width="2.29167" stroke-linejoin="round" stroke-miterlimit="10" fill="#FFFFFF"/><text font-family="Calibri,Calibri_MSFontService,sans-serif" font-weight="400" font-size="50" transform="matrix(1 0 0 1 1051.99 1567)">Kay</text><path d="M762 1265 643 1551 524 1265Z" stroke="#000000" stroke-width="2.29167" stroke-linejoin="round" stroke-miterlimit="10" fill="#FFFFFF" fill-rule="evenodd" fill-opacity="0.937255"/><path d="M355.149 1668.03 642.276 1547.21 521.453 1834.33Z" fill-rule="evenodd"/><path d="M520 1833 642 1547 764 1833Z" stroke="#000000" stroke-width="2.29167" stroke-linejoin="round" stroke-miterlimit="10" fill="#FFFFFF" fill-rule="evenodd" fill-opacity="0.937255"/><path d="M353 1430 642 1547.5 353 1665Z" stroke="#000000" stroke-width="2.29167" stroke-linejoin="round" stroke-miterlimit="10" fill="#FFFFFF" fill-rule="evenodd" fill-opacity="0.937255"/><path d="M764.483 1835.31 646.079 1549.2 932.196 1667.6Z" fill-rule="evenodd"/><path d="M523.571 1263.32 641.975 1549.44 355.858 1431.03Z" fill-rule="evenodd"/><path d="M932 1666 644 1548.5 932 1431Z" stroke="#000000" stroke-width="2.29167" stroke-linejoin="round" stroke-miterlimit="10" fill="#FFFFFF" fill-rule="evenodd"/><path d="M468.568 1124 525.683 1264.61" stroke="#595959" stroke-width="2.29167" stroke-linejoin="round" stroke-miterlimit="10" fill="none" fill-rule="evenodd"/><path d="M822.373 1134.62 759.618 1273.38" stroke="#595959" stroke-width="2.29167" stroke-linejoin="round" stroke-miterlimit="10" fill="none" fill-rule="evenodd"/><path d="M933.861 1431.1 1077.27 1379.85" stroke="#595959" stroke-width="2.29167" stroke-linejoin="round" stroke-miterlimit="10" fill="none" fill-rule="evenodd"/><path d="M1249.65 1430.36 1342.01 1309.27" stroke="#595959" stroke-width="2.29167" stroke-linejoin="round" stroke-miterlimit="10" fill="none" fill-rule="evenodd"/><path d="M1250.67 1671.58 1358.19 1778.69" stroke="#595959" stroke-width="2.29167" stroke-linejoin="round" stroke-miterlimit="10" fill="none" fill-rule="evenodd"/><path d="M929.553 1667.41 1067.22 1731.29" stroke="#595959" stroke-width="2.29167" stroke-linejoin="round" stroke-miterlimit="10" fill="none" fill-rule="evenodd"/><path d="M763.901 1826.04 816.074 1968.55" stroke="#595959" stroke-width="2.29167" stroke-linejoin="round" stroke-miterlimit="10" fill="none" fill-rule="evenodd"/><path d="M520.855 1834.66 458.101 1973.42" stroke="#595959" stroke-width="2.29167" stroke-linejoin="round" stroke-miterlimit="10" fill="none" fill-rule="evenodd"/><path d="M198.107 1726.55 350.257 1667.42" stroke="#595959" stroke-width="2.29167" stroke-linejoin="round" stroke-miterlimit="10" fill="none" fill-rule="evenodd"/><path d="M211.358 1370.94 352.18 1427.53" stroke="#595959" stroke-width="2.29167" stroke-linejoin="round" stroke-miterlimit="10" fill="none" fill-rule="evenodd"/></g></svg>