<svg width="660" height="662" xmlns="http://www.w3.org/2000/svg" xmlns:xlink="http://www.w3.org/1999/xlink" xml:space="preserve" overflow="hidden"><defs><clipPath id="clip0"><rect x="1867" y="3887" width="660" height="662"/></clipPath><clipPath id="clip1"><rect x="2071" y="4289" width="254" height="76"/></clipPath></defs><g clip-path="url(#clip0)" transform="translate(-1867 -3887)"><path d="M1966.75 4083.34 2064.14 3984.59 2196.76 3948.04 2329.11 3983.51 2425.7 4081.47 2460.66 4215.68 2424.62 4350.19 2327.24 4448.94 2194.61 4485.48 2062.26 4450.02 1965.67 4352.06 1930.71 4217.85Z" stroke="#B8823A" stroke-width="2.29167" stroke-miterlimit="8" fill="#DDD7CB" fill-rule="evenodd"/><path d="M2064 3985 2327.1 4449.35" stroke="#B8823A" stroke-width="2.29167" stroke-miterlimit="8" fill="none" fill-rule="evenodd"/><path d="M0 0 266.854 466.514" stroke="#B8823A" stroke-width="2.29167" stroke-miterlimit="8" fill="none" fill-rule="evenodd" transform="matrix(-1 0 0 1 2328.85 3984)"/><path d="M1967 4083 2424.87 4349.85" stroke="#B8823A" stroke-width="2.29167" stroke-miterlimit="8" fill="none" fill-rule="evenodd"/><path d="M0 0 2.15417 537.441" stroke="#B8823A" stroke-width="2.29167" stroke-miterlimit="8" fill="none" fill-rule="evenodd" transform="matrix(-1 0 0 1 2197.15 3948)"/><path d="M0 0 530.009 2.16752" stroke="#B8823A" stroke-width="2.29167" stroke-miterlimit="8" fill="none" fill-rule="evenodd" transform="matrix(1 0 0 -1 1931 4218.17)"/><path d="M0 0 459.863 270.614" stroke="#B8823A" stroke-width="2.29167" stroke-miterlimit="8" fill="none" fill-rule="evenodd" transform="matrix(1 0 0 -1 1966 4351.61)"/><path d="M0 0 57.4609 28.8346" stroke="#B8823A" stroke-width="2.29167" stroke-miterlimit="8" fill="none" fill-rule="evenodd" transform="matrix(1 0 0 -1 2426 4081.83)"/><path d="M0 0 33.1029 51.4925" stroke="#B8823A" stroke-width="2.29167" stroke-miterlimit="8" fill="none" fill-rule="evenodd" transform="matrix(1 0 0 -1 2329 3983.49)"/><path d="M2425 4350 2483.5 4382.03" stroke="#B8823A" stroke-width="2.29167" stroke-miterlimit="8" fill="none" fill-rule="evenodd"/><path d="M2327 4449 2361.89 4502.93" stroke="#B8823A" stroke-width="2.29167" stroke-miterlimit="8" fill="none" fill-rule="evenodd"/><path d="M0 0 29.168 52.8942" stroke="#B8823A" stroke-width="2.29167" stroke-miterlimit="8" fill="none" fill-rule="evenodd" transform="matrix(-1 0 0 1 2062.17 4450)"/><path d="M0 0 53.1367 30.2363" stroke="#B8823A" stroke-width="2.29167" stroke-miterlimit="8" fill="none" fill-rule="evenodd" transform="matrix(-1 0 0 1 1966.14 4352)"/><path d="M1930.29 4218.33 1868 4218" stroke="#B8823A" stroke-width="2.29167" stroke-miterlimit="8" fill="none" fill-rule="evenodd"/><path d="M1966.78 4083.63 1913 4053" stroke="#B8823A" stroke-width="2.29167" stroke-miterlimit="8" fill="none" fill-rule="evenodd"/><path d="M2063.96 3984.53 2033 3932" stroke="#B8823A" stroke-width="2.29167" stroke-miterlimit="8" fill="none" fill-rule="evenodd"/><path d="M0 0 1.12598 59.776" stroke="#B8823A" stroke-width="2.29167" stroke-miterlimit="8" fill="none" fill-rule="evenodd" transform="matrix(1 0 0 -1 2197 3947.78)"/><path d="M0 0 1.10253 62.6343" stroke="#B8823A" stroke-width="2.29167" stroke-miterlimit="8" fill="none" fill-rule="evenodd" transform="matrix(-1 0 0 1 2195.1 4485)"/><path d="M2461 4216 2525.56 4216.72" stroke="#B8823A" stroke-width="2.29167" stroke-miterlimit="8" fill="none" fill-rule="evenodd"/><g clip-path="url(#clip1)"><text font-family="Calibri,Calibri_MSFontService,sans-serif" font-weight="400" font-size="50" transform="matrix(1 0 0 1 2142.09 4344)">AlexE</text></g><path d="M2025.12 4117.73 2098.14 4043.19 2197.44 4015.46 2296.42 4041.98 2368.55 4115.65 2394.52 4216.71 2367.35 4318.11 2294.33 4392.65 2195.03 4420.38 2096.05 4393.85 2023.92 4320.19 1997.95 4219.13Z" stroke="#B8823A" stroke-width="2.29167" stroke-miterlimit="8" fill="none" fill-rule="evenodd"/></g></svg>