<svg width="1494" height="1280" xmlns="http://www.w3.org/2000/svg" xmlns:xlink="http://www.w3.org/1999/xlink" xml:space="preserve" overflow="hidden"><defs><clipPath id="clip0"><rect x="2282" y="1292" width="1494" height="1280"/></clipPath></defs><g clip-path="url(#clip0)" transform="translate(-2282 -1292)"><rect x="2835" y="1847" width="390" height="391" fill="#FFFF00"/><text font-family="Calibri,Calibri_MSFontService,sans-serif" font-weight="400" font-size="50" transform="matrix(1 0 0 1 2972.24 2060)">AlexB</text><path d="M2639.84 2186.03 2835.1 1846.13 2834.25 2238.12Z" fill="#00264C" fill-rule="evenodd"/><path d="M2444.79 1847.15 2835.9 1846.81 2497.02 2042.07Z" fill="#00264C" fill-rule="evenodd"/><path d="M2495.79 2042.86 2834.32 1847.01 2638.48 2185.55Z" fill="#FFFF00" fill-rule="evenodd"/><path d="M2496.77 1653.26 2835.65 1848.51 2444.55 1848.17Z" fill="#FFFF00" fill-rule="evenodd"/><path d="M2834.4 1457.2 2835.25 1849.19 2639.99 1509.29Z" fill="#FFFF00" fill-rule="evenodd"/><path d="M2640.2 1510.29 2836.93 1849.34 2497.88 1652.61Z" fill="#00264C" fill-rule="evenodd"/><rect x="2836" y="1456" width="389" height="391" fill="#00264C"/><path d="M3418.35 1508.15 3223.09 1848.04 3223.94 1456.05Z" fill="#FFFF00" fill-rule="evenodd"/><path d="M3613.4 1847.02 3222.29 1847.36 3561.17 1652.1Z" fill="#FFFF00" fill-rule="evenodd"/><path d="M3562.4 1651.32 3223.86 1847.16 3419.71 1508.63Z" fill="#00264C" fill-rule="evenodd"/><path d="M3561.42 2040.92 3222.54 1845.66 3613.64 1846Z" fill="#00264C" fill-rule="evenodd"/><path d="M3223.78 2236.97 3222.94 1844.99 3418.2 2184.88Z" fill="#00264C" fill-rule="evenodd"/><path d="M3417.99 2183.89 3221.26 1844.84 3560.31 2041.57Z" fill="#FFFF00" fill-rule="evenodd"/><rect x="2834" y="2237" width="389" height="196" stroke="#00264C" stroke-width="2.29167" stroke-linejoin="round" stroke-miterlimit="10" fill="#FFFF00"/><path d="M0 0 1.92644 163.854" stroke="#595959" stroke-width="2.29167" stroke-linejoin="round" stroke-miterlimit="10" fill="none" fill-rule="evenodd" transform="matrix(0.996195 0.0871557 0.0871557 -0.996195 2817.02 2401.45)"/><path d="M0 0 1.92644 163.854" stroke="#595959" stroke-width="2.29167" stroke-linejoin="round" stroke-miterlimit="10" fill="none" fill-rule="evenodd" transform="matrix(0.707107 0.707107 0.707107 -0.707107 2716.12 2547.11)"/><path d="M0 0 1.9315 163.428" stroke="#595959" stroke-width="2.29167" stroke-linejoin="round" stroke-miterlimit="10" fill="none" fill-rule="evenodd" transform="matrix(0.707107 -0.707107 -0.707107 -0.707107 3334.58 2548.32)"/><path d="M0 0 1.92644 163.854" stroke="#595959" stroke-width="2.29167" stroke-linejoin="round" stroke-miterlimit="10" fill="none" fill-rule="evenodd" transform="matrix(0.996195 -0.0871557 -0.0871557 -0.996195 3236.7 2399.33)"/><path d="M0 0 1.92644 163.854" stroke="#595959" stroke-width="2.29167" stroke-linejoin="round" stroke-miterlimit="10" fill="none" fill-rule="evenodd" transform="matrix(0.866025 0.5 0.5 -0.866025 2556.57 2324.94)"/><path d="M0 0 1.92644 163.854" stroke="#595959" stroke-width="2.29167" stroke-linejoin="round" stroke-miterlimit="10" fill="none" fill-rule="evenodd" transform="matrix(0.866025 0.5 0.5 -0.866025 3420.06 1509.72)"/><path d="M0 0 1.9315 163.428" stroke="#595959" stroke-width="2.29167" stroke-linejoin="round" stroke-miterlimit="10" fill="none" fill-rule="evenodd" transform="matrix(0.515038 0.857167 0.857167 -0.515038 2358.89 2122.94)"/><path d="M0 0 1.9315 163.428" stroke="#595959" stroke-width="2.29167" stroke-linejoin="round" stroke-miterlimit="10" fill="none" fill-rule="evenodd" transform="matrix(0.515038 0.857167 0.857167 -0.515038 3561.37 1649.89)"/><path d="M0 0 1.9315 163.428" stroke="#595959" stroke-width="2.29167" stroke-linejoin="round" stroke-miterlimit="10" fill="none" fill-rule="evenodd" transform="matrix(1.83697e-16 1 1 -1.83697e-16 2283 1848)"/><path d="M0 0 1.9315 163.428" stroke="#595959" stroke-width="2.29167" stroke-linejoin="round" stroke-miterlimit="10" fill="none" fill-rule="evenodd" transform="matrix(1.83697e-16 1 1 -1.83697e-16 3611 1846)"/><path d="M0 0 1.9315 163.428" stroke="#595959" stroke-width="2.29167" stroke-linejoin="round" stroke-miterlimit="10" fill="none" fill-rule="evenodd" transform="matrix(-0.5 0.866025 0.866025 0.5 2359.74 1570.94)"/><path d="M0 0 1.9315 163.428" stroke="#595959" stroke-width="2.29167" stroke-linejoin="round" stroke-miterlimit="10" fill="none" fill-rule="evenodd" transform="matrix(-0.5 0.866025 0.866025 0.5 3559.92 2039.4)"/><path d="M0 0 1.92644 163.854" stroke="#595959" stroke-width="2.29167" stroke-linejoin="round" stroke-miterlimit="10" fill="none" fill-rule="evenodd" transform="matrix(-0.866025 0.5 0.5 0.866025 3414.86 2183.04)"/><path d="M0 0 1.92644 163.854" stroke="#595959" stroke-width="2.29167" stroke-linejoin="round" stroke-miterlimit="10" fill="none" fill-rule="evenodd" transform="matrix(-0.866025 0.5 0.5 0.866025 2561.67 1367.82)"/><path d="M0 0 1.92644 163.854" stroke="#595959" stroke-width="2.29167" stroke-linejoin="round" stroke-miterlimit="10" fill="none" fill-rule="evenodd" transform="matrix(-1 0 0 1 2835.93 1295)"/><path d="M0 0 1.92644 163.854" stroke="#595959" stroke-width="2.29167" stroke-linejoin="round" stroke-miterlimit="10" fill="none" fill-rule="evenodd" transform="matrix(-1 0 0 1 3040.93 1294)"/><path d="M0 0 1.92644 163.854" stroke="#595959" stroke-width="2.29167" stroke-linejoin="round" stroke-miterlimit="10" fill="none" fill-rule="evenodd" transform="matrix(-1 0 0 1 3224.93 1293)"/></g></svg>