<svg width="148" height="155" xmlns="http://www.w3.org/2000/svg" xmlns:xlink="http://www.w3.org/1999/xlink" xml:space="preserve" overflow="hidden"><g transform="translate(-2602 -2876)"><path d="M2616 2896.17C2616 2885.03 2625.03 2876 2636.17 2876L2716.83 2876C2727.97 2876 2737 2885.03 2737 2896.17L2737 3010.83C2737 3021.97 2727.97 3031 2716.83 3031L2636.17 3031C2625.03 3031 2616 3021.97 2616 3010.83Z" fill="#D7E3C8" fill-rule="evenodd"/><rect x="2625" y="2886" width="105" height="52" fill="#A39371"/><path d="M2650 2896 2702.34 2896" stroke="#FFFF00" stroke-width="5.72917" stroke-linejoin="round" stroke-miterlimit="10" fill="none" fill-rule="evenodd"/><path d="M2701.03 2895.97 2719.61 2914.55" stroke="#FFFF00" stroke-width="5.72917" stroke-linejoin="round" stroke-miterlimit="10" fill="none" fill-rule="evenodd"/><path d="M2632.69 2914.51 2651.19 2896" stroke="#FFFF00" stroke-width="5.72917" stroke-linejoin="round" stroke-miterlimit="10" fill="none" fill-rule="evenodd"/><path d="M2648 2972.33C2648 2966.63 2652.63 2962 2658.33 2962L2699.67 2962C2705.37 2962 2710 2966.63 2710 2972.33L2710 3013.67C2710 3019.37 2705.37 3024 2699.67 3024L2658.33 3024C2652.63 3024 2648 3019.37 2648 3013.67Z" fill="#FFFFFF" fill-rule="evenodd"/><text font-family="Arial,Arial_MSFontService,sans-serif" font-weight="400" font-size="46" transform="matrix(1 0 0 1 2628.57 2970)">Altar</text></g></svg>