<svg width="1160" height="852" xmlns="http://www.w3.org/2000/svg" xmlns:xlink="http://www.w3.org/1999/xlink" xml:space="preserve" overflow="hidden"><defs><clipPath id="clip0"><rect x="162" y="1820" width="1160" height="852"/></clipPath></defs><g clip-path="url(#clip0)" transform="translate(-162 -1820)"><path d="M892.697 2128.17 606.167 2248.4 726.393 1961.87Z" fill-rule="evenodd"/><rect x="891" y="2129" width="320" height="235" stroke="#000000" stroke-width="2.29167" stroke-linejoin="round" stroke-miterlimit="10" fill="#FFFFFF"/><text font-family="Calibri,Calibri_MSFontService,sans-serif" font-weight="400" font-size="50" transform="matrix(1 0 0 1 1001.89 2264)">Arne</text><path d="M725 1963 607 2249 489 1963Z" stroke="#000000" stroke-width="2.29167" stroke-linejoin="round" stroke-miterlimit="10" fill="#FFFFFF" fill-rule="evenodd" fill-opacity="0.937255"/><path d="M319.53 2365 606.059 2244.78 485.834 2531.31Z" fill-rule="evenodd"/><path d="M484 2530 605.5 2244 727 2530Z" stroke="#000000" stroke-width="2.29167" stroke-linejoin="round" stroke-miterlimit="10" fill="#FFFFFF" fill-rule="evenodd" fill-opacity="0.937255"/><path d="M318 2127 606 2244.5 318 2362Z" stroke="#000000" stroke-width="2.29167" stroke-linejoin="round" stroke-miterlimit="10" fill="#FFFFFF" fill-rule="evenodd" fill-opacity="0.937255"/><path d="M728.204 2532.34 609.553 2246.47 895.425 2365.12Z" fill-rule="evenodd"/><path d="M487.405 1960.84 606.055 2246.71 320.183 2128.06Z" fill-rule="evenodd"/><path d="M895 2364 608 2246 895 2128Z" stroke="#000000" stroke-width="2.29167" stroke-linejoin="round" stroke-miterlimit="10" fill="#FFFFFF" fill-rule="evenodd"/><path d="M432.896 1821.29 489.772 1961.86" stroke="#595959" stroke-width="2.29167" stroke-linejoin="round" stroke-miterlimit="10" fill="none" fill-rule="evenodd"/><path d="M785.561 1831.99 723.122 1970.55" stroke="#595959" stroke-width="2.29167" stroke-linejoin="round" stroke-miterlimit="10" fill="none" fill-rule="evenodd"/><path d="M896.761 2128.42 1039.81 2077.08" stroke="#595959" stroke-width="2.29167" stroke-linejoin="round" stroke-miterlimit="10" fill="none" fill-rule="evenodd"/><path d="M1211.69 2127.56 1303.7 2006.6" stroke="#595959" stroke-width="2.29167" stroke-linejoin="round" stroke-miterlimit="10" fill="none" fill-rule="evenodd"/><path d="M1212.63 2368.82 1319.91 2475.99" stroke="#595959" stroke-width="2.29167" stroke-linejoin="round" stroke-miterlimit="10" fill="none" fill-rule="evenodd"/><path d="M892.395 2364.62 1029.86 2428.63" stroke="#595959" stroke-width="2.29167" stroke-linejoin="round" stroke-miterlimit="10" fill="none" fill-rule="evenodd"/><path d="M727.368 2523.33 779.305 2665.8" stroke="#595959" stroke-width="2.29167" stroke-linejoin="round" stroke-miterlimit="10" fill="none" fill-rule="evenodd"/><path d="M484.928 2532.03 422.489 2670.59" stroke="#595959" stroke-width="2.29167" stroke-linejoin="round" stroke-miterlimit="10" fill="none" fill-rule="evenodd"/><path d="M163.173 2423.85 314.915 2364.66" stroke="#595959" stroke-width="2.29167" stroke-linejoin="round" stroke-miterlimit="10" fill="none" fill-rule="evenodd"/><path d="M176.297 2068.14 316.92 2124.87" stroke="#595959" stroke-width="2.29167" stroke-linejoin="round" stroke-miterlimit="10" fill="none" fill-rule="evenodd"/></g></svg>