<svg width="911" height="758" xmlns="http://www.w3.org/2000/svg" xmlns:xlink="http://www.w3.org/1999/xlink" xml:space="preserve" overflow="hidden"><defs><clipPath id="clip0"><rect x="400" y="453" width="911" height="758"/></clipPath></defs><g clip-path="url(#clip0)" transform="translate(-400 -453)"><path d="M401 779C401 599.508 546.731 454 726.5 454 906.269 454 1052 599.508 1052 779 1052 958.493 906.269 1104 726.5 1104 546.731 1104 401 958.493 401 779Z" stroke="#000000" stroke-width="2.29167" stroke-linejoin="round" stroke-miterlimit="10" fill="#F2F2F2" fill-rule="evenodd"/><path d="M0 0 258.76 0.000721785" stroke="#000000" stroke-width="2.29167" stroke-miterlimit="8" fill="none" fill-rule="evenodd" transform="matrix(1 0 0 -1 726 454.001)"/><path d="M660 779C660 599.508 805.507 454 985 454 1164.49 454 1310 599.508 1310 779 1310 958.493 1164.49 1104 985 1104 805.507 1104 660 958.493 660 779Z" stroke="#000000" stroke-width="2.29167" stroke-linejoin="round" stroke-miterlimit="10" fill="#F2F2F2" fill-rule="evenodd"/><path d="M566.5 630.61 739.61 457.5 984.431 457.5 1157.54 630.61 1157.54 927.39 984.431 1100.5 739.61 1100.5 566.5 927.39Z" stroke="#F2F2F2" stroke-width="4.58333" stroke-miterlimit="8" fill="#F2F2F2" fill-rule="evenodd"/><text font-family="Calibri,Calibri_MSFontService,sans-serif" font-weight="400" font-size="50" transform="matrix(1 0 0 1 771.193 731)">Christian</text><path d="M725 779 986.251 779.86" stroke="#000000" stroke-width="2.29167" stroke-miterlimit="8" fill="none" fill-rule="evenodd"/><rect x="693" y="998" width="328" height="127" stroke="#000000" stroke-width="2.29167" stroke-miterlimit="8" fill="#F2F2F2"/><path d="M0 0 0.000360892 88.3465" stroke="#7F7F7F" stroke-width="2.29167" stroke-miterlimit="8" fill="none" fill-rule="evenodd" transform="matrix(1 0 0 -1 857 1101.35)"/><path d="M692 1102 1022.8 1103.31" stroke="#7F7F7F" stroke-width="2.29167" stroke-miterlimit="8" fill="none" fill-rule="evenodd"/><path d="M0 0 55 84.2189" stroke="#000000" stroke-width="2.29167" stroke-miterlimit="8" fill="none" fill-rule="evenodd" transform="matrix(-1 0 0 1 692 1125)"/><path d="M1022 1127 1093.33 1206.92" stroke="#000000" stroke-width="2.29167" stroke-miterlimit="8" fill="none" fill-rule="evenodd"/></g></svg>