<svg width="327" height="265" xmlns="http://www.w3.org/2000/svg" xmlns:xlink="http://www.w3.org/1999/xlink" xml:space="preserve" overflow="hidden"><defs><clipPath id="clip0"><rect x="1265" y="1382" width="327" height="265"/></clipPath></defs><g clip-path="url(#clip0)" transform="translate(-1265 -1382)"><path d="M1265 1428.67C1265 1404.55 1284.55 1385 1308.67 1385L1548.33 1385C1572.45 1385 1592 1404.55 1592 1428.67L1592 1603.33C1592 1627.45 1572.45 1647 1548.33 1647L1308.67 1647C1284.55 1647 1265 1627.45 1265 1603.33Z" fill="#FFFFFF" fill-rule="evenodd"/><text font-family="Calibri,Calibri_MSFontService,sans-serif" font-weight="400" font-size="50" transform="matrix(1 0 0 1 1300.53 1446)">Feuerstelle</text><path d="M1444.44 1483.4 1484.34 1444 1481.17 1496.42 1522.92 1472.78 1503.41 1503.27 1566 1504.3 1510.66 1529.31 1526.07 1546.45 1503.41 1555.7 1533.35 1585.85 1482.54 1574.21 1486.17 1601.62 1453.05 1588.6 1446.24 1614.97 1425.37 1601.62 1411.32 1622.87 1397.25 1608.47 1365.96 1640 1364.62 1609.51 1322.41 1605.75 1346.93 1583.47 1307 1560.85 1354.18 1549.19 1321.05 1519.04 1371.41 1514.93 1360.98 1476.89 1409.52 1501.91 1423.57 1461.12Z" fill="#FF2151" fill-rule="evenodd"/><path d="M1420.5 1516.03 1453.07 1483 1449.86 1513.32 1486.82 1508.38 1472.14 1524.65 1510.6 1529.34 1480.06 1542.65 1515 1558.68 1473.32 1556.7 1484.77 1586.04 1448.67 1565.32 1441.91 1595.39 1418.15 1568.05 1400.24 1606 1393.51 1571.99 1367.67 1583.32 1375.59 1562.36 1327.18 1566.06 1358.57 1550.05 1326 1532.06 1366.49 1526.37 1329.24 1496.07 1389.98 1518.99 1399.08 1496.07Z" fill="#FFC000" fill-rule="evenodd"/><path d="M1387 1535C1387 1515.12 1401.55 1499 1419.5 1499 1437.45 1499 1452 1515.12 1452 1535 1452 1554.88 1437.45 1571 1419.5 1571 1401.55 1571 1387 1554.88 1387 1535Z" fill-rule="evenodd"/></g></svg>