<svg width="1300" height="939" xmlns="http://www.w3.org/2000/svg" xmlns:xlink="http://www.w3.org/1999/xlink" xml:space="preserve" overflow="hidden"><defs><clipPath id="clip0"><rect x="350" y="580" width="1300" height="939"/></clipPath><clipPath id="clip1"><rect x="879" y="1155" width="256" height="75"/></clipPath></defs><g clip-path="url(#clip0)" transform="translate(-350 -580)"><path d="M1042.62 1182.9 944.935 1281.92 811.893 1318.57 679.123 1283 582.227 1184.74 547.143 1050.13 583.291 915.227 680.977 816.198 814.02 779.551 946.79 815.127 1043.69 913.385 1078.77 1047.99Z" stroke="#B8823A" stroke-width="2.29167" stroke-miterlimit="8" fill="#DDD7CB" fill-rule="evenodd"/><path d="M813.425 1046.65 681 816" stroke="#B8823A" stroke-width="2.29167" stroke-miterlimit="8" fill="none" fill-rule="evenodd"/><path d="M0 0 134.308 236.175" stroke="#B8823A" stroke-width="2.29167" stroke-miterlimit="8" fill="none" fill-rule="evenodd" transform="matrix(1 -1.22465e-16 -1.22465e-16 -1 679 1283.17)"/><path d="M813.14 1047.46 583 915" stroke="#B8823A" stroke-width="2.29167" stroke-miterlimit="8" fill="none" fill-rule="evenodd"/><path d="M0 0 268.009 2.93875" stroke="#B8823A" stroke-width="2.29167" stroke-miterlimit="8" fill="none" fill-rule="evenodd" transform="matrix(-1 1.22465e-16 1.22465e-16 1 815.009 1047)"/><path d="M0 0 230.358 137.903" stroke="#B8823A" stroke-width="2.29167" stroke-miterlimit="8" fill="none" fill-rule="evenodd" transform="matrix(-1 1.22465e-16 1.22465e-16 1 812.358 1047)"/><path d="M0 0 165.337 100.854" stroke="#B8823A" stroke-width="2.29167" stroke-miterlimit="8" fill="none" fill-rule="evenodd" transform="matrix(-1 1.22465e-16 1.22465e-16 1 582.337 1185)"/><path d="M0 0 98.4742 167.18" stroke="#B8823A" stroke-width="2.29167" stroke-miterlimit="8" fill="none" fill-rule="evenodd" transform="matrix(-1 1.22465e-16 1.22465e-16 1 679.474 1283)"/><path d="M583.001 915.409 414 816" stroke="#B8823A" stroke-width="2.29167" stroke-miterlimit="8" fill="none" fill-rule="evenodd"/><path d="M680.634 816.674 582 650" stroke="#B8823A" stroke-width="2.29167" stroke-miterlimit="8" fill="none" fill-rule="evenodd"/><path d="M812 1319 813.542 1517.91" stroke="#B8823A" stroke-width="2.29167" stroke-miterlimit="8" fill="none" fill-rule="evenodd"/><path d="M0 0 0.243963 192.059" stroke="#B8823A" stroke-width="2.29167" stroke-miterlimit="8" fill="none" fill-rule="evenodd" transform="matrix(1 -1.22465e-16 -1.22465e-16 -1 814 780.059)"/><path d="M0 0 195.756 2.7269" stroke="#B8823A" stroke-width="2.29167" stroke-miterlimit="8" fill="none" fill-rule="evenodd" transform="matrix(-1 1.22465e-16 1.22465e-16 1 546.756 1050)"/><path d="M975.482 915.094 1073.16 816.063 1206.19 779.413 1338.95 814.985 1435.83 913.24 1470.91 1047.84 1434.76 1182.75 1337.08 1281.78 1204.05 1318.43 1071.29 1282.86 974.411 1184.6 939.334 1050Z" stroke="#B8823A" stroke-width="2.29167" stroke-miterlimit="8" fill="#DDD7CB" fill-rule="evenodd"/><path d="M1205 1051 1337.41 1281.65" stroke="#B8823A" stroke-width="2.29167" stroke-miterlimit="8" fill="none" fill-rule="evenodd"/><path d="M0 0 134.294 236.175" stroke="#B8823A" stroke-width="2.29167" stroke-miterlimit="8" fill="none" fill-rule="evenodd" transform="matrix(-1 0 0 1 1339.29 815)"/><path d="M1205 1050 1435.12 1182.46" stroke="#B8823A" stroke-width="2.29167" stroke-miterlimit="8" fill="none" fill-rule="evenodd"/><path d="M0 0 267.981 2.93875" stroke="#B8823A" stroke-width="2.29167" stroke-miterlimit="8" fill="none" fill-rule="evenodd" transform="matrix(1 0 0 -1 1203 1050.94)"/><path d="M0 0 230.334 137.903" stroke="#B8823A" stroke-width="2.29167" stroke-miterlimit="8" fill="none" fill-rule="evenodd" transform="matrix(1 0 0 -1 1206 1050.9)"/><path d="M0 0 165.321 100.854" stroke="#B8823A" stroke-width="2.29167" stroke-miterlimit="8" fill="none" fill-rule="evenodd" transform="matrix(1 0 0 -1 1436 912.854)"/><rect x="813" y="781" width="393" height="537" stroke="#B8823A" stroke-width="2.29167" stroke-miterlimit="8" fill="#DDD7CB"/><path d="M0 0 98.4637 167.18" stroke="#B8823A" stroke-width="2.29167" stroke-miterlimit="8" fill="none" fill-rule="evenodd" transform="matrix(1 0 0 -1 1339 815.18)"/><path d="M1435 1183 1603.98 1282.41" stroke="#B8823A" stroke-width="2.29167" stroke-miterlimit="8" fill="none" fill-rule="evenodd"/><path d="M1337 1282 1435.62 1448.67" stroke="#B8823A" stroke-width="2.29167" stroke-miterlimit="8" fill="none" fill-rule="evenodd"/><path d="M1206.54 779.82 1205 581" stroke="#B8823A" stroke-width="2.29167" stroke-miterlimit="8" fill="none" fill-rule="evenodd"/><path d="M0 0 2.21588 192.799" stroke="#B8823A" stroke-width="2.29167" stroke-miterlimit="8" fill="none" fill-rule="evenodd" transform="matrix(-1 0 0 1 1206.22 1318)"/><path d="M0 0 177.112 0.797572" stroke="#B8823A" stroke-width="2.29167" stroke-miterlimit="8" fill="none" fill-rule="evenodd" transform="matrix(1 0 0 -1 1471 1047.8)"/><path d="M0 0 0.244324 192.15" stroke="#B8823A" stroke-width="2.29167" stroke-miterlimit="8" fill="none" fill-rule="evenodd" transform="matrix(1 -1.22465e-16 -1.22465e-16 -1 918 780.15)"/><path d="M0 0 0.244324 192.15" stroke="#B8823A" stroke-width="2.29167" stroke-miterlimit="8" fill="none" fill-rule="evenodd" transform="matrix(1 -1.22465e-16 -1.22465e-16 -1 1011 781.149)"/><g clip-path="url(#clip1)"><text font-family="Calibri,Calibri_MSFontService,sans-serif" font-weight="400" font-size="50" transform="matrix(1 0 0 1 970.437 1210)">Kay</text></g><path d="M0 0 0.244324 192.15" stroke="#B8823A" stroke-width="2.29167" stroke-miterlimit="8" fill="none" fill-rule="evenodd" transform="matrix(1 -1.22465e-16 -1.22465e-16 -1 1103 780.15)"/><path d="M811 1048 1205.92 1049.62" stroke="#B8823A" stroke-width="2.29167" stroke-miterlimit="8" fill="none" fill-rule="evenodd"/><path d="M0 0 97.2583 26.8641" stroke="#B8823A" stroke-width="2.29167" stroke-miterlimit="8" fill="none" fill-rule="evenodd" transform="matrix(-1 0 0 1 812.258 853)"/><path d="M0 0 71.434 72.5152" stroke="#B8823A" stroke-width="2.29167" stroke-miterlimit="8" fill="none" fill-rule="evenodd" transform="matrix(-1 0 0 1 715.434 880)"/><path d="M0 0 26.4635 98.7546" stroke="#B8823A" stroke-width="2.29167" stroke-miterlimit="8" fill="none" fill-rule="evenodd" transform="matrix(-1 0 0 1 643.464 953)"/><path d="M617 1051 642.602 1149.51" stroke="#B8823A" stroke-width="2.29167" stroke-miterlimit="8" fill="none" fill-rule="evenodd"/><path d="M643 1150 713.795 1221.89" stroke="#B8823A" stroke-width="2.29167" stroke-miterlimit="8" fill="none" fill-rule="evenodd"/><path d="M714 1222 815.846 1249.78" stroke="#B8823A" stroke-width="2.29167" stroke-miterlimit="8" fill="none" fill-rule="evenodd"/><path d="M1208 852 1305.04 877.998" stroke="#B8823A" stroke-width="2.29167" stroke-miterlimit="8" fill="none" fill-rule="evenodd"/><path d="M1305 878 1375.79 949.89" stroke="#B8823A" stroke-width="2.29167" stroke-miterlimit="8" fill="none" fill-rule="evenodd"/><path d="M1376 950 1401.6 1048.51" stroke="#B8823A" stroke-width="2.29167" stroke-miterlimit="8" fill="none" fill-rule="evenodd"/><path d="M0 0 26.4635 98.7546" stroke="#B8823A" stroke-width="2.29167" stroke-miterlimit="8" fill="none" fill-rule="evenodd" transform="matrix(-1 0 0 1 1401.46 1048)"/><path d="M0 0 97.2583 26.8641" stroke="#B8823A" stroke-width="2.29167" stroke-miterlimit="8" fill="none" fill-rule="evenodd" transform="matrix(1 0 0 -1 1206 1245.86)"/><path d="M0 0 71.434 72.5152" stroke="#B8823A" stroke-width="2.29167" stroke-miterlimit="8" fill="none" fill-rule="evenodd" transform="matrix(1 0 0 -1 1304 1219.52)"/><path d="M0 0 395.641 1.72362" stroke="#B8823A" stroke-width="2.29167" stroke-miterlimit="8" fill="none" fill-rule="evenodd" transform="matrix(1 0 0 -1 813 852.724)"/><path d="M0 0 392.193 2.58579" stroke="#B8823A" stroke-width="2.29167" stroke-miterlimit="8" fill="none" fill-rule="evenodd" transform="matrix(1 0 0 -1 815 1249.59)"/><path d="M1009 781 1010.11 852.656" stroke="#B8823A" stroke-width="2.29167" stroke-miterlimit="8" fill="none" fill-rule="evenodd"/></g></svg>