<svg width="780" height="653" xmlns="http://www.w3.org/2000/svg" xmlns:xlink="http://www.w3.org/1999/xlink" xml:space="preserve" overflow="hidden"><defs><clipPath id="clip0"><rect x="3587" y="362" width="780" height="653"/></clipPath></defs><g clip-path="url(#clip0)" transform="translate(-3587 -362)"><path d="M3588 557.5C3588 450.081 3675.08 363 3782.5 363 3889.92 363 3977 450.081 3977 557.5 3977 664.919 3889.92 752 3782.5 752 3675.08 752 3588 664.919 3588 557.5Z" stroke="#000000" stroke-width="2.29167" stroke-linejoin="round" stroke-miterlimit="10" fill="#F2F2F2" fill-rule="evenodd"/><path d="M3977 557.5C3977 450.081 4064.08 363 4171.5 363 4278.92 363 4366 450.081 4366 557.5 4366 664.919 4278.92 752 4171.5 752 4064.08 752 3977 664.919 3977 557.5Z" stroke="#000000" stroke-width="2.29167" stroke-linejoin="round" stroke-miterlimit="10" fill="#F2F2F2" fill-rule="evenodd"/><rect x="3778" y="363" width="400" height="390" fill="#F2F2F2"/><text font-family="Calibri,Calibri_MSFontService,sans-serif" font-weight="400" font-size="50" transform="matrix(1 0 0 1 3906.35 535)">Kerstin</text><path d="M3776.5 554.5 4182.94 554.5" stroke="#A5AFB4" stroke-width="3.4375" stroke-linejoin="round" stroke-miterlimit="10" fill="none" fill-rule="evenodd"/><path d="M3776 363 4180.79 363" stroke="#000000" stroke-width="2.29167" stroke-miterlimit="8" fill="none" fill-rule="evenodd"/><rect x="3783" y="559" width="394" height="369" stroke="#000000" stroke-width="2.29167" stroke-miterlimit="8" fill="#F2F2F2"/><path d="M3778 752 4182.79 752" stroke="#000000" stroke-width="2.29167" stroke-miterlimit="8" fill="none" fill-rule="evenodd"/><path d="M0 0 72.3347 87.1295" stroke="#000000" stroke-width="2.29167" stroke-miterlimit="8" fill="none" fill-rule="evenodd" transform="matrix(-1 0 0 1 3782.33 926)"/><path d="M4178 926 4235.83 1011.12" stroke="#000000" stroke-width="2.29167" stroke-miterlimit="8" fill="none" fill-rule="evenodd"/><path d="M3979.04 753.217 3978.5 605.5" stroke="#A5AFB4" stroke-width="3.4375" stroke-linejoin="round" stroke-miterlimit="10" fill="none" fill-rule="evenodd"/></g></svg>