<svg width="756" height="916" xmlns="http://www.w3.org/2000/svg" xmlns:xlink="http://www.w3.org/1999/xlink" xml:space="preserve" overflow="hidden"><defs><clipPath id="clip0"><rect x="3631" y="1248" width="756" height="916"/></clipPath></defs><g clip-path="url(#clip0)" transform="translate(-3631 -1248)"><path d="M3820 2163.99 3820 1972" stroke="#000000" stroke-width="2.29167" stroke-linejoin="round" stroke-miterlimit="10" fill="none" fill-rule="evenodd"/><path d="M4203 2161.99 4203 1970" stroke="#000000" stroke-width="2.29167" stroke-linejoin="round" stroke-miterlimit="10" fill="none" fill-rule="evenodd"/><path d="M4205 1248 4205 1439.99" stroke="#000000" stroke-width="2.29167" stroke-linejoin="round" stroke-miterlimit="10" fill="none" fill-rule="evenodd"/><path d="M3819 1251 3819 1442.99" stroke="#000000" stroke-width="2.29167" stroke-linejoin="round" stroke-miterlimit="10" fill="none" fill-rule="evenodd"/><path d="M0 0 187.258 0.000360892" stroke="#000000" stroke-width="2.29167" stroke-linejoin="round" stroke-miterlimit="10" fill="none" fill-rule="evenodd" transform="matrix(-1 0 0 1 3819.26 1442)"/><path d="M0 0 180.449 3.39491" stroke="#000000" stroke-width="2.29167" stroke-linejoin="round" stroke-miterlimit="10" fill="none" fill-rule="evenodd" transform="matrix(1 0 0 -1 3641 1974.4)"/><path d="M4203 1971 4385.63 1971.28" stroke="#000000" stroke-width="2.29167" stroke-linejoin="round" stroke-miterlimit="10" fill="none" fill-rule="evenodd"/><path d="M0 0 160.02 0.000360892" stroke="#000000" stroke-width="2.29167" stroke-linejoin="round" stroke-miterlimit="10" fill="none" fill-rule="evenodd" transform="matrix(-1 0 0 1 4362.02 1440)"/><rect x="3819" y="1442" width="386" height="529" fill="#F3F1ED"/><text font-family="Calibri,Calibri_MSFontService,sans-serif" font-weight="400" font-size="50" transform="matrix(1 0 0 1 3949.35 1552)">Küche</text><text font-family="Calibri,Calibri_MSFontService,sans-serif" font-weight="400" font-size="50" transform="matrix(1 0 0 1 3975.66 1613)">4x3</text><rect x="3873" y="1733" width="267" height="121" fill="#DBDFE1"/><path d="M4330.72 1888.75 4199 1806" stroke="#000000" stroke-width="2.29167" stroke-linejoin="round" stroke-miterlimit="10" fill="none" fill-rule="evenodd"/><path d="M0 0 163.582 108.21" stroke="#000000" stroke-width="2.29167" stroke-linejoin="round" stroke-miterlimit="10" fill="none" fill-rule="evenodd" transform="matrix(1 0 0 -1 4199 1807.21)"/><path d="M0 0 144.462 76.3832" stroke="#000000" stroke-width="2.29167" stroke-linejoin="round" stroke-miterlimit="10" fill="none" fill-rule="evenodd" transform="matrix(1 0 0 -1 3677 1882.38)"/><path d="M3818.84 1803.53 3668 1742" stroke="#000000" stroke-width="2.29167" stroke-linejoin="round" stroke-miterlimit="10" fill="none" fill-rule="evenodd"/><rect x="3882" y="1663" width="74" height="186" fill="#C9CFD2"/><path d="M3820 1805 4200.7 1805" stroke="#706348" stroke-width="2.29167" stroke-linejoin="round" stroke-miterlimit="10" stroke-opacity="0.866667" fill="none" fill-rule="evenodd"/><rect x="3874" y="1785" width="264" height="13.0001" fill="#BFBFBF"/></g></svg>