<svg width="1325" height="1100" xmlns="http://www.w3.org/2000/svg" xmlns:xlink="http://www.w3.org/1999/xlink" xml:space="preserve" overflow="hidden"><defs><clipPath id="clip0"><rect x="2225" y="309" width="1325" height="1100"/></clipPath></defs><g clip-path="url(#clip0)" transform="translate(-2225 -309)"><rect x="2359" y="637" width="392" height="424" stroke="#000000" stroke-width="2.29167" stroke-linejoin="round" stroke-miterlimit="10" fill="#F2F2F2"/><path d="M2610 851.5C2610 634.728 2784.83 459 3000.5 459 3216.17 459 3391 634.728 3391 851.5 3391 1068.27 3216.17 1244 3000.5 1244 2784.83 1244 2610 1068.27 2610 851.5Z" stroke="#000000" stroke-width="2.29167" stroke-linejoin="round" stroke-miterlimit="10" fill="#F2F2F2" fill-rule="evenodd"/><text font-family="Calibri,Calibri_MSFontService,sans-serif" font-weight="400" font-size="50" transform="matrix(1 0 0 1 2940.88 869)">Sören</text><path d="M0 0 1.93186 162.755" stroke="#595959" stroke-width="3.4375" stroke-linejoin="round" stroke-miterlimit="10" fill="none" fill-rule="evenodd" transform="matrix(-0.707107 0.707107 0.707107 0.707107 2598 468.678)"/><path d="M0 0 1.93186 162.755" stroke="#595959" stroke-width="3.4375" stroke-linejoin="round" stroke-miterlimit="10" fill="none" fill-rule="evenodd" transform="matrix(-0.707107 0.707107 0.707107 0.707107 3255.56 1140.52)"/><path d="M0 0 1.93186 162.755" stroke="#595959" stroke-width="3.4375" stroke-linejoin="round" stroke-miterlimit="10" fill="none" fill-rule="evenodd" transform="matrix(-0.707107 0.707107 0.707107 0.707107 2253.15 520.358)"/><path d="M0 0 1.97228 159.428" stroke="#595959" stroke-width="3.4375" stroke-linejoin="round" stroke-miterlimit="10" fill="none" fill-rule="evenodd" transform="matrix(-1 0 0 1 2983.47 1247.5)"/><path d="M0 0 1.97228 159.428" stroke="#595959" stroke-width="3.4375" stroke-linejoin="round" stroke-miterlimit="10" fill="none" fill-rule="evenodd" transform="matrix(-1 0 0 1 2983.47 309.5)"/><path d="M0 0 1.97228 159.428" stroke="#595959" stroke-width="3.4375" stroke-linejoin="round" stroke-miterlimit="10" fill="none" fill-rule="evenodd" transform="matrix(-0.707107 -0.707107 -0.707107 0.707107 2757.49 1163.75)"/><path d="M0 0 1.97228 159.428" stroke="#595959" stroke-width="3.4375" stroke-linejoin="round" stroke-miterlimit="10" fill="none" fill-rule="evenodd" transform="matrix(-0.707107 -0.707107 -0.707107 0.707107 3383.56 464.343)"/><path d="M0 0 1.97228 159.428" stroke="#595959" stroke-width="3.4375" stroke-linejoin="round" stroke-miterlimit="10" fill="none" fill-rule="evenodd" transform="matrix(-0.707107 -0.707107 -0.707107 0.707107 2363.56 1053.5)"/><path d="M0 0 1.93186 162.755" stroke="#595959" stroke-width="3.4375" stroke-linejoin="round" stroke-miterlimit="10" fill="none" fill-rule="evenodd" transform="matrix(-6.12323e-17 -1 -1 6.12323e-17 3549.25 862.432)"/></g></svg>