<svg width="1060" height="1046" xmlns="http://www.w3.org/2000/svg" xmlns:xlink="http://www.w3.org/1999/xlink" xml:space="preserve" overflow="hidden"><defs><clipPath id="clip0"><rect x="1486" y="326" width="1060" height="1046"/></clipPath></defs><g clip-path="url(#clip0)" transform="translate(-1486 -326)"><path d="M1686 1371.4 1686 1177" stroke="#000000" stroke-width="2.29167" stroke-linejoin="round" stroke-miterlimit="10" fill="none" fill-rule="evenodd"/><path d="M2337 1364.4 2337 1170" stroke="#000000" stroke-width="2.29167" stroke-linejoin="round" stroke-miterlimit="10" fill="none" fill-rule="evenodd"/><path d="M2338 330 2338 524.402" stroke="#000000" stroke-width="2.29167" stroke-linejoin="round" stroke-miterlimit="10" fill="none" fill-rule="evenodd"/><path d="M1689 326 1689 520.402" stroke="#000000" stroke-width="2.29167" stroke-linejoin="round" stroke-miterlimit="10" fill="none" fill-rule="evenodd"/><path d="M1689.31 522.688 1503 522" stroke="#000000" stroke-width="2.29167" stroke-linejoin="round" stroke-miterlimit="10" fill="none" fill-rule="evenodd"/><path d="M0 0 191.125 2.75" stroke="#000000" stroke-width="2.29167" stroke-linejoin="round" stroke-miterlimit="10" fill="none" fill-rule="evenodd" transform="matrix(1 0 0 -1 1499 1181.75)"/><path d="M2339 1177 2526 1178.38" stroke="#000000" stroke-width="2.29167" stroke-linejoin="round" stroke-miterlimit="10" fill="none" fill-rule="evenodd"/><path d="M0 0 209.688 0.000360892" stroke="#000000" stroke-width="2.29167" stroke-linejoin="round" stroke-miterlimit="10" fill="none" fill-rule="evenodd" transform="matrix(-1 0 0 1 2545.69 528)"/><rect x="1687" y="526" width="652" height="651" fill="#F3F1ED"/><text font-family="Calibri,Calibri_MSFontService,sans-serif" font-weight="400" font-size="50" transform="matrix(1 0 0 1 1883.08 636)">Sonnensegel</text><text font-family="Calibri,Calibri_MSFontService,sans-serif" font-weight="400" font-size="50" transform="matrix(1 0 0 1 1976.38 697)">5x5</text><path d="M0 0 647.625 653.125" stroke="#706348" stroke-width="2.29167" stroke-linejoin="round" stroke-miterlimit="10" stroke-opacity="0.866667" fill="none" fill-rule="evenodd" transform="matrix(1 0 0 -1 1688 1180.12)"/><path d="M1688 524 2334.2 1176.01" stroke="#706348" stroke-width="2.29167" stroke-linejoin="round" stroke-miterlimit="10" stroke-opacity="0.866667" fill="none" fill-rule="evenodd"/></g></svg>