<svg width="1154" height="1291" xmlns="http://www.w3.org/2000/svg" xmlns:xlink="http://www.w3.org/1999/xlink" xml:space="preserve" overflow="hidden"><defs><clipPath id="clip0"><rect x="4425" y="1009" width="1154" height="1291"/></clipPath></defs><g clip-path="url(#clip0)" transform="translate(-4425 -1009)"><path d="M4677 2296.96 4677 2045" stroke="#000000" stroke-width="2.29167" stroke-linejoin="round" stroke-miterlimit="10" fill="none" fill-rule="evenodd"/><path d="M5329.75 2299.37 5327 2045" stroke="#000000" stroke-width="2.29167" stroke-linejoin="round" stroke-miterlimit="10" fill="none" fill-rule="evenodd"/><path d="M5325 1009 5325 1260.96" stroke="#000000" stroke-width="2.29167" stroke-linejoin="round" stroke-miterlimit="10" fill="none" fill-rule="evenodd"/><path d="M4676 1011 4676 1262.96" stroke="#000000" stroke-width="2.29167" stroke-linejoin="round" stroke-miterlimit="10" fill="none" fill-rule="evenodd"/><path d="M4673.5 1261.75 4426 1258" stroke="#000000" stroke-width="2.29167" stroke-linejoin="round" stroke-miterlimit="10" fill="none" fill-rule="evenodd"/><path d="M0 0 237.188 2.75036" stroke="#000000" stroke-width="2.29167" stroke-linejoin="round" stroke-miterlimit="10" fill="none" fill-rule="evenodd" transform="matrix(1 0 0 -1 4438 2048.75)"/><path d="M0 0 250.25 0.6875" stroke="#000000" stroke-width="2.29167" stroke-linejoin="round" stroke-miterlimit="10" fill="none" fill-rule="evenodd" transform="matrix(1 0 0 -1 5327 2043.69)"/><path d="M0 0 223.438 0.468799" stroke="#000000" stroke-width="2.29167" stroke-linejoin="round" stroke-miterlimit="10" fill="none" fill-rule="evenodd" transform="matrix(-1 0 0 1 5550.44 1263)"/><rect x="4675" y="1264" width="653" height="779" fill="#F3F1ED"/><text font-family="Calibri,Calibri_MSFontService,sans-serif" font-weight="400" font-size="50" transform="matrix(1 0 0 1 4871.86 1374)">Sonnensegel</text><text font-family="Calibri,Calibri_MSFontService,sans-serif" font-weight="400" font-size="50" transform="matrix(1 0 0 1 4965.15 1435)">5x6</text><path d="M0 0 647.625 781" stroke="#706348" stroke-width="2.29167" stroke-linejoin="round" stroke-miterlimit="10" stroke-opacity="0.866667" fill="none" fill-rule="evenodd" transform="matrix(1 0 0 -1 4677 2046)"/><path d="M4676 1262 5329.12 2041.63" stroke="#706348" stroke-width="2.29167" stroke-linejoin="round" stroke-miterlimit="10" stroke-opacity="0.866667" fill="none" fill-rule="evenodd"/></g></svg>