<svg width="396" height="226" xmlns="http://www.w3.org/2000/svg" xmlns:xlink="http://www.w3.org/1999/xlink" xml:space="preserve" overflow="hidden"><g transform="translate(-1777 -2480)"><path d="M1794.5 2567.5 2124.37 2567.5" stroke="#000000" stroke-width="3.4375" stroke-linejoin="round" stroke-miterlimit="10" fill="none" fill-rule="evenodd"/><path d="M0 0 51.1146 95.883" stroke="#000000" stroke-width="3.4375" stroke-linejoin="round" stroke-miterlimit="10" fill="none" fill-rule="evenodd" transform="matrix(1 -1.22465e-16 -1.22465e-16 -1 1778.5 2642.38)"/><path d="M0 0 90.6962 59.0027" stroke="#000000" stroke-width="3.4375" stroke-linejoin="round" stroke-miterlimit="10" fill="none" fill-rule="evenodd" transform="matrix(1 -1.22465e-16 -1.22465e-16 -1 2080.5 2566.5)"/><path d="M1809.5 2488.5 1833.35 2601.5" stroke="#000000" stroke-width="3.4375" stroke-linejoin="round" stroke-miterlimit="10" fill="none" fill-rule="evenodd"/><path d="M0 0 23.8539 106.16" stroke="#000000" stroke-width="3.4375" stroke-linejoin="round" stroke-miterlimit="10" fill="none" fill-rule="evenodd" transform="matrix(-1 0 0 1 2102.35 2529.5)"/><path d="M2036.5 2481.5 2109.28 2591.7" stroke="#000000" stroke-width="3.4375" stroke-linejoin="round" stroke-miterlimit="10" fill="none" fill-rule="evenodd"/><path d="M1802.5 2546.5 1888.59 2625.38" stroke="#000000" stroke-width="3.4375" stroke-linejoin="round" stroke-miterlimit="10" fill="none" fill-rule="evenodd"/><text font-family="Arial,Arial_MSFontService,sans-serif" font-weight="400" font-size="50" transform="matrix(1 0 0 1 1864.94 2549)">Waffen</text><text font-family="Arial,Arial_MSFontService,sans-serif" font-weight="400" font-size="50" transform="matrix(1 0 0 1 2024.67 2549)">-</text><text font-family="Arial,Arial_MSFontService,sans-serif" font-weight="400" font-size="50" transform="matrix(1 0 0 1 1864.94 2665)">ständer</text></g></svg>