<svg width="659" height="662" xmlns="http://www.w3.org/2000/svg" xmlns:xlink="http://www.w3.org/1999/xlink" xml:space="preserve" overflow="hidden"><defs><clipPath id="clip0"><rect x="3384" y="3648" width="659" height="662"/></clipPath><clipPath id="clip1"><rect x="3588" y="4049" width="254" height="76"/></clipPath></defs><g clip-path="url(#clip0)" transform="translate(-3384 -3648)"><path d="M3483.32 3843.76 3580.7 3745.01 3713.33 3708.46 3845.68 3743.93 3942.26 3841.89 3977.23 3976.1 3941.19 4110.61 3843.8 4209.36 3711.17 4245.9 3578.82 4210.44 3482.24 4112.48 3447.27 3978.27Z" stroke="#B8823A" stroke-width="2.29167" stroke-miterlimit="8" fill="#F2F2F2" fill-rule="evenodd"/><path d="M3581 3745 3844.1 4209.35" stroke="#B8823A" stroke-width="2.29167" stroke-miterlimit="8" fill="none" fill-rule="evenodd"/><path d="M0 0 266.854 466.514" stroke="#B8823A" stroke-width="2.29167" stroke-miterlimit="8" fill="none" fill-rule="evenodd" transform="matrix(-1 0 0 1 3845.85 3744)"/><path d="M3483 3844 3940.87 4110.86" stroke="#B8823A" stroke-width="2.29167" stroke-miterlimit="8" fill="none" fill-rule="evenodd"/><path d="M0 0 2.15417 537.441" stroke="#B8823A" stroke-width="2.29167" stroke-miterlimit="8" fill="none" fill-rule="evenodd" transform="matrix(-1 0 0 1 3713.15 3708)"/><path d="M0 0 530.01 2.16752" stroke="#B8823A" stroke-width="2.29167" stroke-miterlimit="8" fill="none" fill-rule="evenodd" transform="matrix(1 0 0 -1 3447 3978.17)"/><path d="M0 0 459.863 270.614" stroke="#B8823A" stroke-width="2.29167" stroke-miterlimit="8" fill="none" fill-rule="evenodd" transform="matrix(1 0 0 -1 3482 4112.61)"/><path d="M0 0 57.4609 28.8346" stroke="#B8823A" stroke-width="2.29167" stroke-miterlimit="8" fill="none" fill-rule="evenodd" transform="matrix(1 0 0 -1 3942 3841.83)"/><path d="M0 0 33.1029 51.4925" stroke="#B8823A" stroke-width="2.29167" stroke-miterlimit="8" fill="none" fill-rule="evenodd" transform="matrix(1 0 0 -1 3846 3744.49)"/><path d="M3941 4111 3999.5 4143.03" stroke="#B8823A" stroke-width="2.29167" stroke-miterlimit="8" fill="none" fill-rule="evenodd"/><path d="M3844 4209 3878.9 4262.93" stroke="#B8823A" stroke-width="2.29167" stroke-miterlimit="8" fill="none" fill-rule="evenodd"/><path d="M0 0 29.168 52.8942" stroke="#B8823A" stroke-width="2.29167" stroke-miterlimit="8" fill="none" fill-rule="evenodd" transform="matrix(-1 0 0 1 3579.17 4210)"/><path d="M0 0 53.1367 30.2363" stroke="#B8823A" stroke-width="2.29167" stroke-miterlimit="8" fill="none" fill-rule="evenodd" transform="matrix(-1 0 0 1 3482.14 4112)"/><path d="M3447.29 3978.33 3385 3978" stroke="#B8823A" stroke-width="2.29167" stroke-miterlimit="8" fill="none" fill-rule="evenodd"/><path d="M3482.78 3843.63 3429 3813" stroke="#B8823A" stroke-width="2.29167" stroke-miterlimit="8" fill="none" fill-rule="evenodd"/><path d="M3580.96 3745.53 3550 3693" stroke="#B8823A" stroke-width="2.29167" stroke-miterlimit="8" fill="none" fill-rule="evenodd"/><path d="M0 0 1.12598 59.776" stroke="#B8823A" stroke-width="2.29167" stroke-miterlimit="8" fill="none" fill-rule="evenodd" transform="matrix(1 0 0 -1 3713 3708.78)"/><path d="M0 0 1.10253 62.6343" stroke="#B8823A" stroke-width="2.29167" stroke-miterlimit="8" fill="none" fill-rule="evenodd" transform="matrix(-1 0 0 1 3711.1 4246)"/><path d="M3977 3976 4041.56 3976.72" stroke="#B8823A" stroke-width="2.29167" stroke-miterlimit="8" fill="none" fill-rule="evenodd"/><g clip-path="url(#clip1)"><text font-family="Calibri,Calibri_MSFontService,sans-serif" font-weight="400" font-size="50" transform="matrix(1 0 0 1 3641.76 4104)">Winnie</text></g><path d="M3540.2 3877.96 3613.22 3803.43 3712.52 3775.69 3811.5 3802.22 3883.63 3875.88 3909.6 3976.94 3882.43 4078.34 3809.41 4152.88 3710.11 4180.61 3611.13 4154.09 3539 4080.42 3513.03 3979.36Z" stroke="#B8823A" stroke-width="2.29167" stroke-miterlimit="8" fill="none" fill-rule="evenodd"/></g></svg>