<?xml version="1.0" standalone="no"?>
<!DOCTYPE svg PUBLIC "-//W3C//DTD SVG 20010904//EN"
 "http://www.w3.org/TR/2001/REC-SVG-20010904/DTD/svg10.dtd">
<svg version="1.0" xmlns="http://www.w3.org/2000/svg"
 width="1024.000000pt" height="1024.000000pt" viewBox="0 0 1024.000000 1024.000000"
 preserveAspectRatio="xMidYMid meet">
<metadata>
Created by potrace 1.14, written by Peter Selinger 2001-2017
</metadata>
<g transform="translate(0.000000,1024.000000) scale(0.100000,-0.100000)"
fill="#000000" stroke="none">
<path d="M3101 9828 c16 -40 33 -82 38 -93 11 -24 147 -358 191 -470 17 -44
37 -93 44 -110 28 -64 95 -229 210 -515 26 -63 51 -124 56 -135 5 -11 59 -141
119 -290 163 -403 241 -597 256 -630 7 -16 120 -293 250 -615 131 -322 243
-598 251 -615 11 -26 402 -985 425 -1043 9 -22 8 -22 -29 -6 -20 9 -59 25 -87
36 -27 11 -63 25 -80 33 -38 16 -447 182 -665 270 -91 36 -178 72 -195 80 -16
7 -104 43 -195 79 -172 69 -189 76 -230 94 -52 23 -225 94 -235 96 -5 2 -21 8
-35 13 -25 11 -138 57 -385 158 -274 112 -373 152 -785 320 -234 95 -504 205
-600 245 -96 39 -242 98 -325 132 -135 54 -173 69 -240 99 -11 5 -103 42 -205
83 -102 41 -207 84 -234 95 -27 12 -53 20 -57 19 -7 -3 128 -217 166 -263 9
-11 21 -29 26 -40 7 -16 114 -177 146 -220 5 -6 61 -90 126 -188 64 -97 170
-256 235 -352 64 -96 122 -183 127 -192 15 -27 249 -377 255 -383 3 -3 21 -30
40 -60 19 -30 37 -57 40 -60 14 -13 180 -271 180 -280 0 -8 -215 -340 -243
-375 -29 -36 -1106 -1660 -1103 -1663 2 -2 75 26 162 62 88 35 272 110 409
166 138 55 259 105 270 110 11 5 133 55 270 110 138 56 259 105 270 110 29 13
538 221 550 224 6 2 26 10 45 19 35 15 256 105 460 187 58 23 119 48 135 55
17 7 138 57 270 110 132 54 254 103 270 110 17 7 77 32 135 55 58 23 119 48
135 55 17 7 53 22 80 33 28 11 129 52 225 92 96 40 193 79 215 87 22 8 54 21
70 28 26 12 544 223 603 246 22 9 22 8 6 -29 -9 -20 -49 -118 -89 -217 -40
-99 -94 -232 -120 -295 -26 -63 -60 -149 -77 -190 -16 -41 -36 -88 -43 -105
-7 -16 -25 -61 -40 -99 -15 -38 -31 -77 -36 -85 -4 -9 -45 -108 -89 -221 -45
-113 -88 -218 -95 -235 -7 -16 -52 -127 -100 -245 -48 -118 -93 -228 -100
-245 -8 -16 -39 -93 -70 -170 -31 -77 -60 -149 -65 -160 -5 -11 -28 -67 -50
-125 -23 -58 -50 -124 -61 -147 -10 -24 -19 -45 -19 -48 0 -3 -9 -24 -19 -48
-10 -23 -42 -100 -71 -172 -28 -71 -56 -139 -60 -150 -5 -11 -21 -49 -35 -85
-15 -36 -32 -78 -39 -95 -8 -16 -42 -100 -76 -185 -34 -85 -71 -174 -81 -197
-10 -23 -19 -45 -19 -48 0 -4 -7 -21 -15 -38 -7 -18 -33 -79 -56 -137 -22 -58
-47 -118 -54 -135 -8 -16 -59 -142 -115 -280 -55 -137 -113 -279 -127 -315
-15 -36 -31 -71 -36 -77 -17 -23 8 -14 49 17 21 16 42 30 46 30 5 0 79 48 173
114 80 55 308 206 313 206 3 0 21 12 40 27 20 15 160 109 311 210 152 100 285
189 296 197 63 44 308 206 313 206 3 0 20 11 38 25 19 14 131 90 251 170 l217
144 35 -28 c20 -16 41 -30 46 -32 6 -2 158 -103 338 -224 181 -121 354 -237
385 -257 31 -20 62 -41 69 -47 7 -6 14 -11 17 -11 5 0 96 -60 106 -70 9 -9 69
-50 73 -50 2 0 38 -23 78 -50 122 -83 153 -105 164 -110 14 -7 159 -104 165
-110 6 -6 61 -43 75 -50 6 -3 43 -28 84 -55 40 -28 99 -67 130 -87 31 -20 61
-41 68 -47 7 -6 14 -11 17 -11 3 0 44 -27 92 -61 47 -33 88 -58 91 -56 2 3
-55 151 -127 329 -73 177 -161 395 -197 483 -36 88 -71 174 -78 190 -7 17 -66
161 -130 320 -64 160 -123 304 -130 320 -7 17 -39 93 -69 170 -58 144 -66 162
-84 205 -12 27 -226 553 -323 795 -33 83 -64 159 -69 170 -29 67 -77 182 -140
340 -40 99 -78 194 -86 210 -7 17 -37 91 -68 165 -145 358 -190 469 -259 640
-42 102 -83 202 -91 222 -16 37 -16 38 6 29 24 -9 778 -316 928 -378 47 -20
105 -43 130 -53 25 -9 106 -42 180 -73 191 -78 293 -119 930 -378 311 -127
574 -234 585 -239 11 -5 342 -140 735 -300 393 -160 724 -295 735 -300 61 -29
349 -140 353 -136 2 3 -9 22 -24 43 -16 21 -33 46 -39 55 -5 10 -50 77 -99
150 -49 73 -110 165 -135 203 -25 39 -48 72 -51 75 -3 3 -25 37 -50 75 -25 39
-47 72 -50 75 -8 8 -84 123 -92 140 -4 8 -36 56 -70 106 -35 50 -109 161 -166
245 -56 85 -130 196 -165 247 -34 51 -69 104 -77 117 -13 21 -87 133 -292 437
-21 32 -38 62 -38 68 0 8 424 654 440 670 3 3 53 77 111 165 58 88 260 391
448 674 188 282 345 520 348 528 5 12 2 13 -13 4 -10 -6 -59 -27 -109 -46 -49
-20 -99 -40 -110 -45 -19 -9 -107 -45 -270 -110 -44 -18 -93 -38 -110 -45 -16
-7 -114 -47 -217 -89 -102 -41 -287 -116 -410 -167 -290 -119 -482 -197 -538
-219 -34 -13 -656 -267 -839 -342 -14 -6 -30 -12 -36 -14 -5 -2 -80 -32 -165
-67 -85 -35 -263 -108 -395 -161 -132 -54 -253 -103 -270 -111 -16 -7 -257
-105 -535 -218 -278 -113 -522 -213 -542 -221 -37 -16 -38 -16 -29 6 22 56
104 256 116 283 7 17 27 66 45 110 17 44 40 99 51 122 10 24 19 45 19 47 0 5
242 601 259 641 5 11 44 106 86 210 42 105 82 204 90 220 8 17 28 66 45 110
17 44 35 89 40 100 5 11 93 227 196 480 102 253 192 474 199 490 13 30 108
263 265 650 45 110 139 342 210 515 226 555 241 592 237 596 -3 3 -1338 -882
-1448 -960 -65 -46 -276 -187 -288 -193 -7 -3 -76 -48 -153 -100 -143 -97
-158 -102 -198 -68 -15 12 -789 531 -822 550 -9 6 -63 42 -120 80 -56 39 -107
72 -113 74 -5 2 -18 10 -28 19 -9 8 -26 20 -37 26 -10 6 -160 105 -332 221
-172 115 -321 214 -330 220 -20 12 -188 125 -205 137 -6 5 2 -24 18 -64z"/>
</g>
</svg>
